@startuml

state "en attente de validation" as state1 : Compte nouvellement crée
state1 : En attente de la validation de l'identité

state "validé / actif" as state2 : État normal d'un compte

state "invalidé" as state3 : les documents d'identité n'ont pas était validé

state "bloqué" as state4 : compte bloquer suite à un mauvais comprtement

[*] --> state1
state1 --> state2
state1 --> state3
state3 --> state1
state2 --> state4
state4 --> state2
state4 --> [*]
state2 --> [*]

@enduml